<?xml version="1.0" standalone="no"?><!DOCTYPE svg PUBLIC "-//W3C//DTD SVG 1.1//EN" "http://www.w3.org/Graphics/SVG/1.1/DTD/svg11.dtd"><svg class="icon" width="250px" height="250.00px" viewBox="0 0 1024 1024" version="1.1" xmlns="http://www.w3.org/2000/svg"><path fill="#d64213" d="M866.2 56.5H157.8c-51.8 0-93.8 42-93.8 93.8v723.5c0 51.8 42 93.8 93.8 93.8h708.4c51.8 0 93.8-42 93.8-93.8V150.3c0-51.9-42-93.8-93.8-93.8zM750.3 584.3H575.6V759c0 35.1-28.4 63.5-63.5 63.5S448.6 794 448.6 759V584.3H273.8c-35.1 0-63.5-28.5-63.5-63.5 0-35.1 28.4-63.5 63.5-63.5h174.7V282.5c0-35.1 28.4-63.5 63.5-63.5s63.5 28.5 63.5 63.5v174.7h174.7c35.1 0 63.5 28.5 63.5 63.5s-28.3 63.6-63.4 63.6z"  /></svg>