<?xml version="1.0" standalone="no"?><!DOCTYPE svg PUBLIC "-//W3C//DTD SVG 1.1//EN" "http://www.w3.org/Graphics/SVG/1.1/DTD/svg11.dtd"><svg class="icon" width="250px" height="250.00px" viewBox="0 0 1024 1024" version="1.1" xmlns="http://www.w3.org/2000/svg"><path fill="#59819a" d="M90.4 416.8c-43.2 0-78.4-35.2-78.4-78.4V241.6c0-4.8 3.2-8 8-8h140.8c4.8 0 8 3.2 8 8v97.6c0 42.4-35.2 77.6-78.4 77.6zM28 249.6v89.6c0 34.4 28 62.4 62.4 62.4s62.4-28 62.4-62.4V249.6H28zM231.2 416.8c-43.2 0-78.4-35.2-78.4-78.4V241.6c0-4.8 3.2-8 8-8h140.8c4.8 0 8 3.2 8 8v97.6c-0.8 42.4-35.2 77.6-78.4 77.6z m-62.4-167.2v89.6c0 34.4 28 62.4 62.4 62.4s62.4-28 62.4-62.4V249.6H168.8zM371.2 416.8c-43.2 0-78.4-35.2-78.4-78.4V241.6c0-4.8 3.2-8 8-8h140.8c4.8 0 8 3.2 8 8v97.6c0 42.4-35.2 77.6-78.4 77.6z m-62.4-167.2v89.6c0 34.4 28 62.4 62.4 62.4s62.4-28 62.4-62.4V249.6H308.8zM512 416.8c-43.2 0-78.4-35.2-78.4-78.4V241.6c0-4.8 3.2-8 8-8h140.8c4.8 0 8 3.2 8 8v97.6c0 42.4-35.2 77.6-78.4 77.6z m-62.4-167.2v89.6c0 34.4 28 62.4 62.4 62.4s62.4-28 62.4-62.4V249.6H449.6zM652.8 416.8c-43.2 0-78.4-35.2-78.4-78.4V241.6c0-4.8 3.2-8 8-8h140.8c4.8 0 8 3.2 8 8v97.6c0 42.4-35.2 77.6-78.4 77.6z m-62.4-167.2v89.6c0 34.4 28 62.4 62.4 62.4s62.4-28 62.4-62.4V249.6H590.4zM792.8 416.8c-43.2 0-78.4-35.2-78.4-78.4V241.6c0-4.8 3.2-8 8-8h140.8c4.8 0 8 3.2 8 8v97.6c0 42.4-35.2 77.6-78.4 77.6z m-61.6-167.2v89.6c0 34.4 28 62.4 62.4 62.4s62.4-28 62.4-62.4V249.6H731.2zM933.6 416.8c-43.2 0-78.4-35.2-78.4-78.4V241.6c0-4.8 3.2-8 8-8h140.8c4.8 0 8 3.2 8 8v97.6c0 42.4-35.2 77.6-78.4 77.6z m-62.4-167.2v89.6c0 34.4 28 62.4 62.4 62.4s62.4-28 62.4-62.4V249.6h-124.8zM1004 1020H20c-8.8 0-16-7.2-16-16V241.6c0-3.2 0.8-6.4 2.4-8.8L147.2 11.2c3.2-4.8 8-7.2 13.6-7.2H864c5.6 0 10.4 2.4 13.6 7.2l140.8 221.6c1.6 2.4 2.4 5.6 2.4 8.8v762.4c-0.8 8.8-8 16-16.8 16z m-968-32h952V245.6L854.4 36H169.6L36 245.6v742.4zM932 817.6H487.2c-4.8 0-8-3.2-8-8V504c0-4.8 3.2-8 8-8h444c4.8 0 8 3.2 8 8v305.6c0.8 4.8-3.2 8-7.2 8z m-436.8-16h428V512H495.2v289.6zM416.8 1012h-312c-4.8 0-8-3.2-8-8V504c0-4.8 3.2-8 8-8h312c4.8 0 8 3.2 8 8v500c0 4.8-3.2 8-8 8z m-303.2-16h296V512h-296v484zM552.8 625.6c-2.4 0-4-0.8-5.6-2.4-3.2-3.2-3.2-8 0-11.2l50.4-50.4c3.2-3.2 8-3.2 11.2 0 3.2 3.2 3.2 8 0 11.2l-50.4 50.4c-1.6 1.6-3.2 2.4-5.6 2.4zM578.4 712c-2.4 0-4-0.8-5.6-2.4-3.2-3.2-3.2-8 0-11.2l112.8-111.2c3.2-3.2 8-3.2 11.2 0 3.2 3.2 3.2 8 0 11.2L584 709.6c-1.6 1.6-4 2.4-5.6 2.4zM160.8 249.6H20c-3.2 0-5.6-1.6-7.2-4-1.6-2.4-1.6-5.6 0-8L153.6 16c1.6-2.4 4-4 6.4-4h100.8c2.4 0 5.6 1.6 6.4 4 1.6 2.4 1.6 4.8 0.8 8L168 244.8c-1.6 2.4-4 4.8-7.2 4.8z m-126.4-16h120.8L248.8 28H164.8L34.4 233.6zM300.8 249.6H160.8c-2.4 0-5.6-1.6-6.4-4-1.6-2.4-1.6-4.8-0.8-8L253.6 16.8c1.6-3.2 4-4.8 7.2-4.8h100.8c2.4 0 4.8 0.8 6.4 3.2 1.6 1.6 2.4 4.8 1.6 7.2l-60 221.6c-1.6 3.2-4.8 5.6-8.8 5.6z m-128-16h122.4l56-205.6H266.4L172.8 233.6zM441.6 249.6H300.8c-2.4 0-4.8-0.8-6.4-3.2-1.6-1.6-2.4-4.8-1.6-7.2l60-221.6c0.8-3.2 4-5.6 8-5.6h100.8c2.4 0 4 0.8 5.6 2.4 1.6 1.6 2.4 4 2.4 6.4l-20 221.6c0 4-4 7.2-8 7.2z m-129.6-16h122.4l18.4-205.6H367.2L312 233.6zM582.4 249.6H441.6c-2.4 0-4-0.8-5.6-2.4-1.6-1.6-2.4-4-2.4-6.4l20-221.6c0-4 4-7.2 8-7.2h100.8c4 0 7.2 3.2 8 7.2l20 221.6c0 2.4-0.8 4.8-2.4 6.4-1.6 0.8-3.2 2.4-5.6 2.4z m-132-16h123.2L555.2 28H468.8l-18.4 205.6zM723.2 249.6H582.4c-4 0-7.2-3.2-8-7.2L554.4 20.8c0-2.4 0.8-4.8 2.4-6.4 1.6-1.6 4-2.4 5.6-2.4h100.8c4 0 6.4 2.4 8 5.6l60 221.6c0.8 2.4 0 4.8-1.6 7.2-1.6 1.6-4 3.2-6.4 3.2z m-133.6-16H712L656 28H571.2l18.4 205.6zM863.2 249.6H723.2c-4 0-6.4-2.4-8-5.6L655.2 22.4c-0.8-2.4 0-4.8 1.6-7.2 1.6-1.6 4-3.2 6.4-3.2h100.8c3.2 0 5.6 1.6 7.2 4.8L872 238.4c0.8 2.4 0.8 5.6-0.8 8-2.4 1.6-4.8 3.2-8 3.2z m-134.4-16h122.4L757.6 28H672.8l56 205.6zM1004 249.6h-140.8c-3.2 0-5.6-1.6-7.2-4.8L756 23.2c-0.8-2.4-0.8-5.6 0.8-8 1.6-2.4 4-4 6.4-4H864c2.4 0 5.6 1.6 6.4 4l140.8 221.6c1.6 2.4 1.6 5.6 0 8-1.6 3.2-4 4.8-7.2 4.8z m-135.2-16h120.8L859.2 28H775.2l93.6 205.6z" /></svg>