<?xml version="1.0" standalone="no"?><!DOCTYPE svg PUBLIC "-//W3C//DTD SVG 1.1//EN" "http://www.w3.org/Graphics/SVG/1.1/DTD/svg11.dtd"><svg class="icon" width="250px" height="250.00px" viewBox="0 0 1024 1024" version="1.1" xmlns="http://www.w3.org/2000/svg"><path fill="#59819a" d="M623.223 563.856a292.896 292.896 0 1 0-222.431 0A474.152 474.152 0 0 0 40.827 988.343a29.714 29.714 0 0 0 27.591 30.563 30.139 30.139 0 0 0 32.261-27.592 412.601 412.601 0 0 1 823.08 3.396 29.29 29.29 0 0 0 29.715 28.017 29.714 29.714 0 0 0 28.016-31.413 472.879 472.879 0 0 0-358.267-427.458z m-344.26-270.823a233.043 233.043 0 1 1 233.044 233.044 233.043 233.043 0 0 1-233.043-233.044z" /></svg>